<svg viewBox="0 0 342 77" xmlns="http://www.w3.org/2000/svg">
  <path d="M 280.283 10 L 318.987 10 C 326.719 10 332.987 16.268 332.987 24 L 332.987 54 C 332.987 61.732 326.719 68 318.987 68 L 280.283 68 C 272.551 68 266.283 61.732 266.283 54 L 266.283 24 C 266.283 16.268 272.551 10 280.283 10 Z M 284.05 54.196 L 315.135 54.196 L 315.135 23.221 L 275.1 23.161 L 284.05 28.413 L 284.05 54.196 Z M 241.362 10 C 249.094 10 255.362 16.268 255.362 24 L 255.362 36.207 C 255.362 43.939 249.094 50.207 241.362 50.207 L 238.448 50.207 L 255.6 68 L 237.547 67.977 L 219.142 50.207 L 197.8 50.2 L 206.746 55.45 L 206.746 68 L 188 68 L 188 10 L 241.362 10 Z M 206.7 36.413 L 236.7 36.413 L 236.7 23.068 L 197.8 23.117 L 206.7 28.34 L 206.7 36.413 Z M 157.746 68 L 139 68 L 139 23.685 L 117.062 23.685 L 117.062 10 L 179.758 10 L 179.758 23.685 L 148.71 23.715 L 157.745 29.017 L 157.746 68 Z M 89 10 L 107.746 10 L 107.746 68 L 89 68 L 89 10 Z M 58 10 L 76.746 10 L 76.746 68 L 58 68 L 58 67.999 L 57.999 68 L 27.986 31.813 L 27.986 68 L 9.24 68 L 9.24 10 L 27.986 10 L 27.986 10.012 L 28 10 L 58 45.752 L 58 10 Z" style=""></path>
</svg>